<svg width="1083" height="31" viewBox="0 0 1083 31" fill="none" xmlns="http://www.w3.org/2000/svg">
<path d="M778.688 19V17.656H780.746V10.124H778.688V8.78H784.344V10.124H782.286V17.656H784.344V19H778.688ZM786.887 19V11.3H788.385V12.77H788.749L788.385 13.12C788.385 12.504 788.567 12.0233 788.931 11.678C789.295 11.3327 789.799 11.16 790.443 11.16C791.208 11.16 791.82 11.4073 792.277 11.902C792.734 12.3873 792.963 13.0453 792.963 13.876V19H791.451V14.044C791.451 13.54 791.316 13.1527 791.045 12.882C790.774 12.6113 790.406 12.476 789.939 12.476C789.463 12.476 789.085 12.6207 788.805 12.91C788.534 13.19 788.399 13.6007 788.399 14.142V19H786.887ZM795.239 19V17.628H797.941V12.672H795.589V11.3H799.411V17.628H801.889V19H795.239ZM797.591 9.97L799.075 8.01H800.699L799.117 9.97H797.591ZM806.756 19.14C806.121 19.14 805.561 19.0233 805.076 18.79C804.6 18.5473 804.231 18.202 803.97 17.754C803.718 17.2967 803.592 16.7647 803.592 16.158V14.142C803.592 13.526 803.718 12.994 803.97 12.546C804.231 12.098 804.6 11.7573 805.076 11.524C805.561 11.2813 806.121 11.16 806.756 11.16C807.68 11.16 808.422 11.4027 808.982 11.888C809.542 12.3733 809.836 13.036 809.864 13.876H808.352C808.324 13.4373 808.17 13.0967 807.89 12.854C807.61 12.6113 807.232 12.49 806.756 12.49C806.243 12.49 805.837 12.6347 805.538 12.924C805.239 13.204 805.09 13.6053 805.09 14.128V16.158C805.09 16.6807 805.239 17.0867 805.538 17.376C805.837 17.6653 806.243 17.81 806.756 17.81C807.232 17.81 807.61 17.6887 807.89 17.446C808.17 17.2033 808.324 16.8627 808.352 16.424H809.864C809.836 17.264 809.542 17.9267 808.982 18.412C808.422 18.8973 807.68 19.14 806.756 19.14ZM812.029 19V17.628H814.731V12.672H812.379V11.3H816.201V17.628H818.679V19H812.029ZM815.319 9.97C814.992 9.97 814.731 9.886 814.535 9.718C814.339 9.54067 814.241 9.30733 814.241 9.018C814.241 8.71933 814.339 8.486 814.535 8.318C814.731 8.14067 814.992 8.052 815.319 8.052C815.645 8.052 815.907 8.14067 816.103 8.318C816.299 8.486 816.397 8.71933 816.397 9.018C816.397 9.30733 816.299 9.54067 816.103 9.718C815.907 9.886 815.645 9.97 815.319 9.97ZM823.489 19.126C822.854 19.126 822.304 19.0047 821.837 18.762C821.37 18.5193 821.011 18.174 820.759 17.726C820.507 17.278 820.381 16.7507 820.381 16.144V14.156C820.381 13.54 820.507 13.0127 820.759 12.574C821.011 12.126 821.37 11.7807 821.837 11.538C822.304 11.2953 822.854 11.174 823.489 11.174C824.124 11.174 824.674 11.2953 825.141 11.538C825.608 11.7807 825.967 12.126 826.219 12.574C826.471 13.0127 826.597 13.54 826.597 14.156V16.144C826.597 16.7507 826.471 17.278 826.219 17.726C825.967 18.174 825.608 18.5193 825.141 18.762C824.674 19.0047 824.124 19.126 823.489 19.126ZM823.489 17.796C824.002 17.796 824.399 17.656 824.679 17.376C824.959 17.0867 825.099 16.676 825.099 16.144V14.156C825.099 13.6147 824.959 13.204 824.679 12.924C824.399 12.644 824.002 12.504 823.489 12.504C822.985 12.504 822.588 12.644 822.299 12.924C822.019 13.204 821.879 13.6147 821.879 14.156V16.144C821.879 16.676 822.019 17.0867 822.299 17.376C822.588 17.656 822.985 17.796 823.489 17.796Z" fill="white"/>
<path d="M896.664 19.14C895.973 19.14 895.381 19.028 894.886 18.804C894.391 18.5707 894.009 18.244 893.738 17.824C893.467 17.3947 893.332 16.886 893.332 16.298H894.83C894.83 16.7647 894.993 17.1333 895.32 17.404C895.647 17.6653 896.099 17.796 896.678 17.796C897.219 17.796 897.644 17.6653 897.952 17.404C898.26 17.1427 898.414 16.7833 898.414 16.326C898.414 15.9433 898.307 15.612 898.092 15.332C897.887 15.052 897.588 14.8607 897.196 14.758L895.908 14.38C895.161 14.1653 894.583 13.8013 894.172 13.288C893.771 12.7653 893.57 12.1447 893.57 11.426C893.57 10.866 893.696 10.376 893.948 9.956C894.2 9.536 894.559 9.20933 895.026 8.976C895.493 8.74267 896.043 8.626 896.678 8.626C897.611 8.626 898.358 8.878 898.918 9.382C899.487 9.886 899.777 10.5627 899.786 11.412H898.274C898.274 10.964 898.129 10.614 897.84 10.362C897.56 10.1007 897.163 9.97 896.65 9.97C896.155 9.97 895.768 10.0913 895.488 10.334C895.208 10.5673 895.068 10.8987 895.068 11.328C895.068 11.7107 895.171 12.042 895.376 12.322C895.591 12.602 895.894 12.798 896.286 12.91L897.588 13.302C898.335 13.5073 898.909 13.8713 899.31 14.394C899.711 14.9167 899.912 15.542 899.912 16.27C899.912 16.8393 899.777 17.3433 899.506 17.782C899.235 18.2113 898.857 18.5473 898.372 18.79C897.887 19.0233 897.317 19.14 896.664 19.14ZM905.016 19.14C904.391 19.14 903.84 19.0187 903.364 18.776C902.898 18.524 902.538 18.174 902.286 17.726C902.034 17.278 901.908 16.7553 901.908 16.158V14.142C901.908 13.5353 902.034 13.0127 902.286 12.574C902.538 12.126 902.898 11.7807 903.364 11.538C903.84 11.286 904.391 11.16 905.016 11.16C905.651 11.16 906.202 11.286 906.668 11.538C907.135 11.7807 907.494 12.126 907.746 12.574C907.998 13.0127 908.124 13.5353 908.124 14.142V15.514H903.364V16.158C903.364 16.7273 903.504 17.1613 903.784 17.46C904.074 17.7587 904.489 17.908 905.03 17.908C905.469 17.908 905.824 17.8333 906.094 17.684C906.365 17.5253 906.533 17.2967 906.598 16.998H908.096C907.984 17.6513 907.648 18.174 907.088 18.566C906.528 18.9487 905.838 19.14 905.016 19.14ZM906.668 14.604V14.128C906.668 13.568 906.528 13.134 906.248 12.826C905.968 12.518 905.558 12.364 905.016 12.364C904.484 12.364 904.074 12.518 903.784 12.826C903.504 13.134 903.364 13.5727 903.364 14.142V14.492L906.78 14.478L906.668 14.604ZM910.639 19V11.3H912.095V12.77H912.459L911.997 13.68C911.997 12.8493 912.179 12.224 912.543 11.804C912.907 11.3747 913.448 11.16 914.167 11.16C914.988 11.16 915.637 11.4167 916.113 11.93C916.598 12.434 916.841 13.1293 916.841 14.016V14.534H915.287V14.142C915.287 13.5913 915.147 13.1713 914.867 12.882C914.596 12.5833 914.214 12.434 913.719 12.434C913.224 12.434 912.837 12.5833 912.557 12.882C912.286 13.1807 912.151 13.6007 912.151 14.142V19H910.639ZM920.811 19L918.263 11.3H919.803L921.385 16.228C921.488 16.5173 921.577 16.8113 921.651 17.11C921.735 17.3993 921.796 17.628 921.833 17.796C921.88 17.628 921.941 17.3993 922.015 17.11C922.099 16.8113 922.183 16.5173 922.267 16.228L923.821 11.3H925.347L922.799 19H920.811ZM927.134 19V17.628H929.836V12.672H927.484V11.3H931.306V17.628H933.784V19H927.134ZM930.424 9.97C930.097 9.97 929.836 9.886 929.64 9.718C929.444 9.54067 929.346 9.30733 929.346 9.018C929.346 8.71933 929.444 8.486 929.64 8.318C929.836 8.14067 930.097 8.052 930.424 8.052C930.751 8.052 931.012 8.14067 931.208 8.318C931.404 8.486 931.502 8.71933 931.502 9.018C931.502 9.30733 931.404 9.54067 931.208 9.718C931.012 9.886 930.751 9.97 930.424 9.97ZM937.251 21.94V21.1H938.273C938.487 21.1 938.66 21.044 938.791 20.932C938.921 20.8293 938.987 20.7173 938.987 20.596C938.987 20.4187 938.851 20.2693 938.581 20.148C938.319 20.0267 937.951 19.966 937.475 19.966L937.965 18.678H938.819L938.539 19.504C938.8 19.532 939.066 19.5927 939.337 19.686C939.607 19.7793 939.836 19.91 940.023 20.078C940.219 20.2553 940.317 20.4747 940.317 20.736C940.317 21.0627 940.153 21.3427 939.827 21.576C939.5 21.8187 939.075 21.94 938.553 21.94H937.251ZM938.651 19.14C938.016 19.14 937.456 19.0233 936.971 18.79C936.495 18.5473 936.126 18.202 935.865 17.754C935.613 17.2967 935.487 16.7647 935.487 16.158V14.142C935.487 13.526 935.613 12.994 935.865 12.546C936.126 12.098 936.495 11.7573 936.971 11.524C937.456 11.2813 938.016 11.16 938.651 11.16C939.575 11.16 940.317 11.4027 940.877 11.888C941.437 12.3733 941.731 13.036 941.759 13.876H940.247C940.219 13.4373 940.065 13.0967 939.785 12.854C939.505 12.6113 939.127 12.49 938.651 12.49C938.137 12.49 937.731 12.6347 937.433 12.924C937.134 13.204 936.985 13.6053 936.985 14.128V16.158C936.985 16.6807 937.134 17.0867 937.433 17.376C937.731 17.6653 938.137 17.81 938.651 17.81C939.127 17.81 939.505 17.6887 939.785 17.446C940.065 17.2033 940.219 16.8627 940.247 16.424H941.759C941.731 17.264 941.437 17.9267 940.877 18.412C940.317 18.8973 939.575 19.14 938.651 19.14ZM946.989 19.126C946.354 19.126 945.804 19.0047 945.337 18.762C944.87 18.5193 944.511 18.174 944.259 17.726C944.007 17.278 943.881 16.7507 943.881 16.144V14.156C943.881 13.54 944.007 13.0127 944.259 12.574C944.511 12.126 944.87 11.7807 945.337 11.538C945.804 11.2953 946.354 11.174 946.989 11.174C947.624 11.174 948.174 11.2953 948.641 11.538C949.108 11.7807 949.467 12.126 949.719 12.574C949.971 13.0127 950.097 13.54 950.097 14.156V16.144C950.097 16.7507 949.971 17.278 949.719 17.726C949.467 18.174 949.108 18.5193 948.641 18.762C948.174 19.0047 947.624 19.126 946.989 19.126ZM946.989 17.796C947.502 17.796 947.899 17.656 948.179 17.376C948.459 17.0867 948.599 16.676 948.599 16.144V14.156C948.599 13.6147 948.459 13.204 948.179 12.924C947.899 12.644 947.502 12.504 946.989 12.504C946.485 12.504 946.088 12.644 945.799 12.924C945.519 13.204 945.379 13.6147 945.379 14.156V16.144C945.379 16.676 945.519 17.0867 945.799 17.376C946.088 17.656 946.485 17.796 946.989 17.796ZM955.118 19.126C954.567 19.126 954.082 19.0373 953.662 18.86C953.251 18.6827 952.924 18.44 952.682 18.132C952.448 17.8147 952.313 17.4413 952.276 17.012H953.788C953.825 17.264 953.96 17.4693 954.194 17.628C954.427 17.7773 954.735 17.852 955.118 17.852H955.72C956.177 17.852 956.522 17.7587 956.756 17.572C956.989 17.3853 957.106 17.138 957.106 16.83C957.106 16.5313 956.998 16.298 956.784 16.13C956.578 15.9527 956.27 15.836 955.86 15.78L954.866 15.626C954.044 15.4953 953.438 15.262 953.046 14.926C952.663 14.5807 952.472 14.072 952.472 13.4C952.472 12.6907 952.7 12.1447 953.158 11.762C953.624 11.37 954.31 11.174 955.216 11.174H955.748C956.55 11.174 957.19 11.3607 957.666 11.734C958.151 12.098 958.426 12.588 958.492 13.204H956.98C956.942 12.98 956.816 12.798 956.602 12.658C956.396 12.518 956.112 12.448 955.748 12.448H955.216C954.777 12.448 954.455 12.532 954.25 12.7C954.054 12.8587 953.956 13.0967 953.956 13.414C953.956 13.694 954.044 13.904 954.222 14.044C954.399 14.184 954.674 14.282 955.048 14.338L956.07 14.506C956.938 14.6273 957.572 14.87 957.974 15.234C958.384 15.5887 958.59 16.1067 958.59 16.788C958.59 17.5253 958.347 18.0993 957.862 18.51C957.386 18.9207 956.672 19.126 955.72 19.126H955.118Z" fill="white"/>
<path d="M1028.38 19.14C1027.74 19.14 1027.19 19.0233 1026.71 18.79C1026.24 18.5473 1025.88 18.202 1025.62 17.754C1025.37 17.2967 1025.24 16.7647 1025.24 16.158V11.622C1025.24 11.006 1025.37 10.474 1025.62 10.026C1025.88 9.578 1026.24 9.23733 1026.71 9.004C1027.19 8.76133 1027.74 8.64 1028.38 8.64C1029.01 8.64 1029.56 8.76133 1030.03 9.004C1030.49 9.24667 1030.85 9.592 1031.11 10.04C1031.37 10.4787 1031.5 11.006 1031.5 11.622H1029.99C1029.99 11.09 1029.85 10.684 1029.57 10.404C1029.29 10.124 1028.89 9.984 1028.38 9.984C1027.86 9.984 1027.46 10.124 1027.17 10.404C1026.89 10.684 1026.75 11.0853 1026.75 11.608V16.158C1026.75 16.6807 1026.89 17.0867 1027.17 17.376C1027.46 17.656 1027.86 17.796 1028.38 17.796C1028.89 17.796 1029.29 17.656 1029.57 17.376C1029.85 17.0867 1029.99 16.6807 1029.99 16.158H1031.5C1031.5 16.7647 1031.37 17.292 1031.11 17.74C1030.85 18.188 1030.49 18.5333 1030.03 18.776C1029.56 19.0187 1029.01 19.14 1028.38 19.14ZM1036.71 19.126C1036.08 19.126 1035.53 19.0047 1035.06 18.762C1034.6 18.5193 1034.24 18.174 1033.98 17.726C1033.73 17.278 1033.61 16.7507 1033.61 16.144V14.156C1033.61 13.54 1033.73 13.0127 1033.98 12.574C1034.24 12.126 1034.6 11.7807 1035.06 11.538C1035.53 11.2953 1036.08 11.174 1036.71 11.174C1037.35 11.174 1037.9 11.2953 1038.37 11.538C1038.83 11.7807 1039.19 12.126 1039.44 12.574C1039.7 13.0127 1039.82 13.54 1039.82 14.156V16.144C1039.82 16.7507 1039.7 17.278 1039.44 17.726C1039.19 18.174 1038.83 18.5193 1038.37 18.762C1037.9 19.0047 1037.35 19.126 1036.71 19.126ZM1036.71 17.796C1037.23 17.796 1037.62 17.656 1037.9 17.376C1038.18 17.0867 1038.32 16.676 1038.32 16.144V14.156C1038.32 13.6147 1038.18 13.204 1037.9 12.924C1037.62 12.644 1037.23 12.504 1036.71 12.504C1036.21 12.504 1035.81 12.644 1035.52 12.924C1035.24 13.204 1035.1 13.6147 1035.1 14.156V16.144C1035.1 16.676 1035.24 17.0867 1035.52 17.376C1035.81 17.656 1036.21 17.796 1036.71 17.796ZM1042.08 19V11.3H1043.58V12.77H1043.95L1043.58 13.12C1043.58 12.504 1043.76 12.0233 1044.13 11.678C1044.49 11.3327 1045 11.16 1045.64 11.16C1046.41 11.16 1047.02 11.4073 1047.47 11.902C1047.93 12.3873 1048.16 13.0453 1048.16 13.876V19H1046.65V14.044C1046.65 13.54 1046.51 13.1527 1046.24 12.882C1045.97 12.6113 1045.6 12.476 1045.14 12.476C1044.66 12.476 1044.28 12.6207 1044 12.91C1043.73 13.19 1043.6 13.6007 1043.6 14.142V19H1042.08ZM1054.34 19C1053.64 19 1053.1 18.8087 1052.7 18.426C1052.31 18.0433 1052.12 17.5113 1052.12 16.83V12.672H1049.99V11.3H1052.12V9.13H1053.63V11.3H1056.64V12.672H1053.63V16.83C1053.63 17.362 1053.89 17.628 1054.4 17.628H1056.5V19H1054.34ZM1061.13 19.14C1060.32 19.14 1059.69 18.9347 1059.22 18.524C1058.77 18.104 1058.54 17.5347 1058.54 16.816C1058.54 16.088 1058.78 15.5187 1059.27 15.108C1059.76 14.688 1060.44 14.478 1061.3 14.478H1063.44V13.764C1063.44 13.344 1063.31 13.0173 1063.05 12.784C1062.78 12.5507 1062.42 12.434 1061.94 12.434C1061.52 12.434 1061.17 12.5273 1060.89 12.714C1060.61 12.8913 1060.45 13.1293 1060.4 13.428H1058.92C1059 12.7373 1059.32 12.1867 1059.87 11.776C1060.43 11.3653 1061.13 11.16 1061.98 11.16C1062.9 11.16 1063.62 11.3933 1064.15 11.86C1064.68 12.3173 1064.95 12.9427 1064.95 13.736V19H1063.48V17.586H1063.23L1063.48 17.306C1063.48 17.866 1063.26 18.314 1062.84 18.65C1062.41 18.9767 1061.84 19.14 1061.13 19.14ZM1061.58 17.978C1062.12 17.978 1062.56 17.8427 1062.91 17.572C1063.26 17.292 1063.44 16.9373 1063.44 16.508V15.5H1061.32C1060.93 15.5 1060.62 15.6073 1060.39 15.822C1060.16 16.0367 1060.05 16.3307 1060.05 16.704C1060.05 17.096 1060.18 17.4087 1060.46 17.642C1060.73 17.866 1061.1 17.978 1061.58 17.978ZM1071.13 19C1070.43 19 1069.89 18.8087 1069.49 18.426C1069.1 18.0433 1068.91 17.5113 1068.91 16.83V12.672H1066.78V11.3H1068.91V9.13H1070.42V11.3H1073.43V12.672H1070.42V16.83C1070.42 17.362 1070.67 17.628 1071.19 17.628H1073.29V19H1071.13ZM1078.69 19.126C1078.05 19.126 1077.5 19.0047 1077.03 18.762C1076.57 18.5193 1076.21 18.174 1075.96 17.726C1075.7 17.278 1075.58 16.7507 1075.58 16.144V14.156C1075.58 13.54 1075.7 13.0127 1075.96 12.574C1076.21 12.126 1076.57 11.7807 1077.03 11.538C1077.5 11.2953 1078.05 11.174 1078.69 11.174C1079.32 11.174 1079.87 11.2953 1080.34 11.538C1080.8 11.7807 1081.16 12.126 1081.42 12.574C1081.67 13.0127 1081.79 13.54 1081.79 14.156V16.144C1081.79 16.7507 1081.67 17.278 1081.42 17.726C1081.16 18.174 1080.8 18.5193 1080.34 18.762C1079.87 19.0047 1079.32 19.126 1078.69 19.126ZM1078.69 17.796C1079.2 17.796 1079.6 17.656 1079.88 17.376C1080.16 17.0867 1080.3 16.676 1080.3 16.144V14.156C1080.3 13.6147 1080.16 13.204 1079.88 12.924C1079.6 12.644 1079.2 12.504 1078.69 12.504C1078.18 12.504 1077.79 12.644 1077.5 12.924C1077.22 13.204 1077.08 13.6147 1077.08 14.156V16.144C1077.08 16.676 1077.22 17.0867 1077.5 17.376C1077.79 17.656 1078.18 17.796 1078.69 17.796Z" fill="white"/>
<path d="M42.5142 23.24C41.3942 23.24 40.4102 23.032 39.5622 22.616C38.7302 22.184 38.0822 21.584 37.6182 20.816C37.1542 20.032 36.9222 19.112 36.9222 18.056V14.744C36.9222 13.672 37.1542 12.752 37.6182 11.984C38.0822 11.216 38.7302 10.624 39.5622 10.208C40.4102 9.776 41.3942 9.56 42.5142 9.56C44.1782 9.56 45.5062 9.992 46.4982 10.856C47.4902 11.704 48.0102 12.864 48.0582 14.336H45.0582C45.0102 13.648 44.7622 13.12 44.3142 12.752C43.8822 12.368 43.2822 12.176 42.5142 12.176C41.7142 12.176 41.0822 12.4 40.6182 12.848C40.1542 13.28 39.9222 13.904 39.9222 14.72V18.056C39.9222 18.872 40.1542 19.504 40.6182 19.952C41.0822 20.4 41.7142 20.624 42.5142 20.624C43.2822 20.624 43.8822 20.44 44.3142 20.072C44.7622 19.688 45.0102 19.152 45.0582 18.464H48.0582C48.0102 19.936 47.4902 21.104 46.4982 21.968C45.5062 22.816 44.1782 23.24 42.5142 23.24ZM51.5528 23V5.48H54.5528V14.984H56.6408L59.8568 9.8H63.2168L59.2328 16.184L63.2888 23H59.8568L56.6408 17.528H54.5528V23H51.5528ZM71.2474 23.24C70.1274 23.24 69.1514 23.024 68.3194 22.592C67.4874 22.16 66.8394 21.56 66.3754 20.792C65.9274 20.008 65.7034 19.096 65.7034 18.056V14.744C65.7034 13.704 65.9274 12.8 66.3754 12.032C66.8394 11.248 67.4874 10.64 68.3194 10.208C69.1514 9.776 70.1274 9.56 71.2474 9.56C72.3514 9.56 73.3114 9.776 74.1274 10.208C74.9594 10.64 75.5994 11.248 76.0474 12.032C76.5114 12.8 76.7434 13.704 76.7434 14.744V17.12H68.6074V18.056C68.6074 18.984 68.8314 19.688 69.2794 20.168C69.7274 20.632 70.3914 20.864 71.2714 20.864C71.9434 20.864 72.4874 20.752 72.9034 20.528C73.3194 20.288 73.5834 19.944 73.6954 19.496H76.6474C76.4234 20.632 75.8154 21.544 74.8234 22.232C73.8474 22.904 72.6554 23.24 71.2474 23.24ZM73.8394 15.44V14.72C73.8394 13.808 73.6234 13.112 73.1914 12.632C72.7594 12.136 72.1114 11.888 71.2474 11.888C70.3834 11.888 69.7274 12.136 69.2794 12.632C68.8314 13.128 68.6074 13.832 68.6074 14.744V15.248L74.0554 15.2L73.8394 15.44ZM87.0541 23C85.7901 23 84.7981 22.648 84.0781 21.944C83.3741 21.24 83.0221 20.272 83.0221 19.04V12.512H79.4461V9.8H83.0221V6.08H86.0461V9.8H91.1101V12.512H86.0461V19.04C86.0461 19.872 86.4541 20.288 87.2701 20.288H90.8701V23H87.0541ZM100.005 23.24C99.3167 23.24 98.7647 23.04 98.3487 22.64C97.9487 22.24 97.7487 21.696 97.7487 21.008C97.7487 20.32 97.9487 19.776 98.3487 19.376C98.7647 18.96 99.3167 18.752 100.005 18.752C100.693 18.752 101.237 18.96 101.637 19.376C102.053 19.776 102.261 20.32 102.261 21.008C102.261 21.696 102.053 22.24 101.637 22.64C101.237 23.04 100.693 23.24 100.005 23.24ZM113.891 23.216C112.883 23.216 112.003 23.056 111.251 22.736C110.499 22.416 109.907 21.976 109.475 21.416C109.059 20.84 108.835 20.168 108.803 19.4H111.803C111.835 19.816 112.035 20.152 112.403 20.408C112.787 20.664 113.283 20.792 113.891 20.792H114.947C115.683 20.792 116.235 20.648 116.603 20.36C116.971 20.072 117.155 19.68 117.155 19.184C117.155 18.72 116.987 18.36 116.651 18.104C116.331 17.832 115.827 17.656 115.139 17.576L113.507 17.336C112.003 17.128 110.899 16.728 110.195 16.136C109.491 15.544 109.139 14.656 109.139 13.472C109.139 12.24 109.555 11.288 110.387 10.616C111.219 9.928 112.443 9.584 114.059 9.584H114.971C116.443 9.584 117.619 9.912 118.499 10.568C119.379 11.224 119.851 12.104 119.915 13.208H116.915C116.867 12.856 116.667 12.568 116.315 12.344C115.979 12.12 115.531 12.008 114.971 12.008H114.059C113.371 12.008 112.867 12.136 112.547 12.392C112.243 12.632 112.091 12.992 112.091 13.472C112.091 13.92 112.227 14.256 112.499 14.48C112.771 14.688 113.211 14.84 113.819 14.936L115.523 15.176C117.091 15.4 118.243 15.824 118.979 16.448C119.731 17.056 120.107 17.96 120.107 19.16C120.107 20.44 119.667 21.44 118.787 22.16C117.923 22.864 116.643 23.216 114.947 23.216H113.891ZM128.81 23.24C127.69 23.24 126.714 23.024 125.882 22.592C125.05 22.16 124.402 21.56 123.938 20.792C123.49 20.008 123.266 19.096 123.266 18.056V14.744C123.266 13.704 123.49 12.8 123.938 12.032C124.402 11.248 125.05 10.64 125.882 10.208C126.714 9.776 127.69 9.56 128.81 9.56C129.914 9.56 130.874 9.776 131.69 10.208C132.522 10.64 133.162 11.248 133.61 12.032C134.074 12.8 134.306 13.704 134.306 14.744V17.12H126.17V18.056C126.17 18.984 126.394 19.688 126.842 20.168C127.29 20.632 127.954 20.864 128.834 20.864C129.506 20.864 130.05 20.752 130.466 20.528C130.882 20.288 131.146 19.944 131.258 19.496H134.21C133.986 20.632 133.378 21.544 132.386 22.232C131.41 22.904 130.218 23.24 128.81 23.24ZM131.402 15.44V14.72C131.402 13.808 131.186 13.112 130.754 12.632C130.322 12.136 129.674 11.888 128.81 11.888C127.946 11.888 127.29 12.136 126.842 12.632C126.394 13.128 126.17 13.832 126.17 14.744V15.248L131.618 15.2L131.402 15.44ZM143.249 23.24C142.129 23.24 141.145 23.032 140.297 22.616C139.465 22.184 138.817 21.584 138.353 20.816C137.889 20.032 137.657 19.112 137.657 18.056V14.744C137.657 13.672 137.889 12.752 138.353 11.984C138.817 11.216 139.465 10.624 140.297 10.208C141.145 9.776 142.129 9.56 143.249 9.56C144.913 9.56 146.241 9.992 147.233 10.856C148.225 11.704 148.745 12.864 148.793 14.336H145.793C145.745 13.648 145.497 13.12 145.049 12.752C144.617 12.368 144.017 12.176 143.249 12.176C142.449 12.176 141.817 12.4 141.353 12.848C140.889 13.28 140.657 13.904 140.657 14.72V18.056C140.657 18.872 140.889 19.504 141.353 19.952C141.817 20.4 142.449 20.624 143.249 20.624C144.017 20.624 144.617 20.44 145.049 20.072C145.497 19.688 145.745 19.152 145.793 18.464H148.793C148.745 19.936 148.225 21.104 147.233 21.968C146.241 22.816 144.913 23.24 143.249 23.24ZM159.007 23C157.743 23 156.751 22.648 156.031 21.944C155.327 21.24 154.975 20.272 154.975 19.04V12.512H151.399V9.8H154.975V6.08H157.999V9.8H163.063V12.512H157.999V19.04C157.999 19.872 158.407 20.288 159.223 20.288H162.823V23H159.007Z" fill="white"/>
<path d="M26.4611 15.1706C24.1683 15.1706 22.303 13.4165 22.303 11.2604C22.303 9.10427 24.1683 7.35016 26.4611 7.35016C28.7538 7.35016 30.6192 9.10427 30.6192 11.2604C30.6192 13.4165 28.7538 15.1706 26.4611 15.1706ZM26.4611 8.33817C24.7837 8.33817 23.419 9.64905 23.419 11.2604C23.419 12.8717 24.7837 14.1826 26.4611 14.1826C28.1384 14.1826 29.5031 12.8717 29.5031 11.2604C29.5031 9.64905 28.1384 8.33817 26.4611 8.33817Z" fill="#00BFA6"/>
<path d="M26.4703 15.0774C24.1724 15.0774 22.303 13.2656 22.303 11.0387C22.303 8.81173 24.1724 7 26.4703 7C28.7681 7 30.6376 8.81173 30.6376 11.0387C30.6376 13.2656 28.7681 15.0774 26.4703 15.0774ZM26.4703 8.02047C24.7892 8.02047 23.4215 9.37441 23.4215 11.0387C23.4215 12.7029 24.7892 14.0569 26.4703 14.0569C28.1514 14.0569 29.519 12.7029 29.519 11.0387C29.519 9.37441 28.1514 8.02047 26.4703 8.02047Z" fill="#00BFA6"/>
<path d="M30.5177 23H22.6252C21.9292 22.9993 21.2619 22.7468 20.7698 22.2978C20.2776 21.8488 20.0008 21.24 20 20.605V13.5421C20.0005 13.1074 20.1901 12.6906 20.527 12.3832C20.8639 12.0758 21.3207 11.9029 21.7972 11.9024H31.3456C31.8221 11.9029 32.2789 12.0758 32.6159 12.3832C32.9528 12.6906 33.1423 13.1074 33.1429 13.5421V20.605C33.1421 21.24 32.8652 21.8488 32.3731 22.2978C31.881 22.7468 31.2137 22.9993 30.5177 23Z" fill="white"/>
<path d="M28.0657 16.5749C28.0659 16.3254 27.9932 16.0805 27.8552 15.8652C27.7171 15.6499 27.5186 15.4721 27.2802 15.3501C27.0417 15.228 26.7719 15.1662 26.4986 15.1709C26.2252 15.1756 25.9582 15.2467 25.725 15.3769C25.4918 15.5071 25.3008 15.6916 25.1718 15.9115C25.0428 16.1314 24.9803 16.3787 24.9908 16.628C25.0014 16.8772 25.0846 17.1194 25.2318 17.3295C25.3791 17.5397 25.5851 17.7102 25.8286 17.8236V20.0189H27.2268V17.8236C27.4792 17.7062 27.6911 17.5275 27.8392 17.3071C27.9872 17.0868 28.0656 16.8333 28.0657 16.5749Z" fill="white"/>
<path d="M28.0657 16.5749C28.0659 16.3254 27.9932 16.0805 27.8552 15.8652C27.7171 15.6499 27.5186 15.4721 27.2802 15.3501C27.0417 15.228 26.7719 15.1662 26.4986 15.1709C26.2252 15.1756 25.9582 15.2467 25.725 15.3769C25.4918 15.5071 25.3008 15.6916 25.1718 15.9115C25.0428 16.1314 24.9803 16.3787 24.9908 16.628C25.0014 16.8772 25.0846 17.1194 25.2318 17.3295C25.3791 17.5397 25.5851 17.7102 25.8286 17.8236V20.0189H27.2268V17.8236C27.4792 17.7062 27.6911 17.5275 27.8392 17.3071C27.9872 17.0868 28.0656 16.8333 28.0657 16.5749Z" fill="#2F2E41"/>
<path d="M5.65647 23V5.48H11.2005C12.3685 5.48 13.3765 5.696 14.2245 6.128C15.0885 6.56 15.7605 7.168 16.2405 7.952C16.7205 8.72 16.9605 9.632 16.9605 10.688C16.9605 11.84 16.6645 12.856 16.0725 13.736C15.4965 14.616 14.7125 15.24 13.7205 15.608L17.2005 23H13.8405L10.7925 16.04H8.65647V23H5.65647ZM8.65647 13.4H11.2005C12.0485 13.4 12.7125 13.168 13.1925 12.704C13.6725 12.24 13.9125 11.6 13.9125 10.784C13.9125 9.952 13.6725 9.304 13.1925 8.84C12.7125 8.36 12.0485 8.12 11.2005 8.12H8.65647V13.4Z" fill="white"/>
</svg>
